<svg viewBox="0 0 553 219" fill="none" xmlns="http://www.w3.org/2000/svg" aria-hidden="true">
  <defs>
    <linearGradient id="gradient" opacity= "0.4">
      <stop offset="0%" style="stop-color: #1c92d2;" />
      <stop offset="100%" style="stop-color: #f2fcfe;"/>
    </linearGradient>
  </defs>
<g fill="url(#gradient)">
  <path d="M552.642 165.076C551.636 147.296 544.349 130.452 532.08 117.546C519.81 104.64 503.355 96.5112 485.65 94.6086C467.944 92.706 450.138 97.1534 435.407 107.158C420.675 117.163 409.976 132.074 405.216 149.233C404.306 149.201 403.396 149.164 402.478 149.164C386.244 149.167 370.447 154.426 357.451 164.155C344.456 173.883 334.959 187.558 330.382 203.133C319.625 198.407 307.604 197.381 296.202 200.217C284.799 203.054 274.66 209.591 267.371 218.807H501.758C530.554 218.807 553.869 194.956 552.695 166.184C552.68 165.815 552.662 165.446 552.642 165.076Z"  stroke="#fff"/>
  <path d="M0.0956723 71.8924C1.10119 54.1132 8.38836 37.2691 20.6579 24.363C32.9275 11.457 49.382 3.32797 67.0876 1.42536C84.7932 -0.47726 102.599 3.97017 117.331 13.9747C132.062 23.9793 142.762 38.8906 147.522 56.0502C148.432 56.0176 149.342 55.981 150.26 55.981C166.494 55.984 182.29 61.2431 195.286 70.9715C208.282 80.6999 217.779 94.3747 222.355 109.95C233.113 105.223 245.133 104.198 256.536 107.034C267.938 109.87 278.078 116.408 285.367 125.624H50.9794C22.1834 125.624 -1.13177 101.773 0.0424954 73.0006C0.0575421 72.6318 0.0752723 72.2624 0.0956723 71.8924Z" stroke="#fff"/>
</g>
</svg>
